<svg width="24" height="24" viewBox="0 0 24 24" fill="none" xmlns="http://www.w3.org/2000/svg">
<path d="M12.4999 2.00003C11.0246 1.99649 9.57083 2.3414 8.25376 3.00589C5.03817 4.61299 3.00199 7.90335 2.99986 11.4981C2.99642 12.8161 3.31141 14.1028 3.84361 15.3047L2.05064 20.6836C1.99169 20.8599 1.98305 21.0492 2.02567 21.2301C2.06829 21.411 2.1605 21.5765 2.29195 21.7079C2.42339 21.8394 2.58886 21.9316 2.7698 21.9742C2.95074 22.0168 3.13997 22.0082 3.31626 21.9492L8.69517 20.1563C9.89711 20.6885 11.1838 21.0035 12.5018 21C16.0951 20.9979 19.3842 18.9633 20.992 15.75V15.748C21.6576 14.4298 22.0037 12.9748 21.9999 11.4981V11C21.9997 10.9818 21.999 10.9635 21.9979 10.9453C21.7322 6.12887 17.871 2.2677 13.0545 2.00198C13.0363 2.00083 13.0181 2.00018 12.9999 2.00003H12.5018H12.4999ZM12.4979 4.00003C12.4985 4.00003 12.4992 4.00003 12.4999 4.00003H12.953C16.7614 4.2143 19.7856 7.23847 19.9999 11.0469V11.5C19.9999 11.5007 19.9999 11.5014 19.9999 11.502C20.0029 12.6644 19.731 13.8121 19.2069 14.8497C19.2062 14.851 19.2056 14.8523 19.2049 14.8536C17.9343 17.396 15.3422 18.9989 12.4999 19C12.4992 19 12.4985 19 12.4979 19C11.3355 19.003 10.1878 18.7311 9.1502 18.2071C9.03235 18.1474 8.90384 18.1117 8.7721 18.102C8.64037 18.0922 8.50801 18.1087 8.38267 18.1504L4.58189 19.418L5.84947 15.6172C5.89119 15.4919 5.90767 15.3595 5.89794 15.2278C5.88822 15.096 5.8525 14.9675 5.79283 14.8496C5.26876 13.8121 4.99683 12.6644 4.99986 11.502C4.99986 11.5013 4.99986 11.5007 4.99986 11.5C5.00096 8.65771 6.60387 6.06563 9.14634 4.79495C9.14765 4.7943 9.14895 4.79365 9.15025 4.793C10.1878 4.26892 11.3355 3.997 12.4979 4.00003Z" fill="#3A373A"/>
</svg>
