<svg width="14" height="14" viewBox="0 0 14 14" fill="none" xmlns="http://www.w3.org/2000/svg">
<path fill-rule="evenodd" clip-rule="evenodd" d="M8.66656 2.55545C8.35973 2.55545 8.111 2.30672 8.111 1.99989C8.111 1.69307 8.35973 1.44434 8.66656 1.44434H11.9999C12.3067 1.44434 12.5554 1.69307 12.5554 1.99989V5.33322C12.5554 5.64005 12.3067 5.88878 11.9999 5.88878C11.6931 5.88878 11.4443 5.64005 11.4443 5.33322V3.34112L8.50384 6.28162C8.28688 6.49858 7.93512 6.49858 7.71817 6.28162C7.50121 6.06466 7.50121 5.7129 7.71817 5.49594L10.6587 2.55545H8.66656ZM5.49594 7.71817C5.7129 7.50121 6.06466 7.50121 6.28162 7.71817C6.49858 7.93512 6.49858 8.28688 6.28162 8.50384L3.34112 11.4443H5.33322C5.64005 11.4443 5.88878 11.6931 5.88878 11.9999C5.88878 12.3067 5.64005 12.5554 5.33322 12.5554H1.99989C1.69307 12.5554 1.44434 12.3067 1.44434 11.9999V8.66656C1.44434 8.35973 1.69307 8.111 1.99989 8.111C2.30672 8.111 2.55545 8.35973 2.55545 8.66656V10.6587L5.49594 7.71817Z" fill="#3A373A"/>
</svg>
