<svg width="14" height="14" viewBox="0 0 14 14" fill="none" xmlns="http://www.w3.org/2000/svg">
<path fill-rule="evenodd" clip-rule="evenodd" d="M3.27405 3.27405C3.491 3.05709 3.84276 3.05709 4.05972 3.27405L7.00022 6.21454L9.94071 3.27405C10.1577 3.05709 10.5094 3.05709 10.7264 3.27405C10.9433 3.491 10.9433 3.84276 10.7264 4.05972L7.78589 7.00022L10.7264 9.94071C10.9433 10.1577 10.9433 10.5094 10.7264 10.7264C10.5094 10.9433 10.1577 10.9433 9.94071 10.7264L7.00022 7.78589L4.05972 10.7264C3.84276 10.9433 3.491 10.9433 3.27405 10.7264C3.05709 10.5094 3.05709 10.1577 3.27405 9.94071L6.21454 7.00022L3.27405 4.05972C3.05709 3.84276 3.05709 3.491 3.27405 3.27405Z" fill="#3A373A"/>
</svg>
