<svg width="24" height="24" viewBox="0 0 24 24" fill="none" xmlns="http://www.w3.org/2000/svg">
<path d="M12.5008 2.00003C11.0256 1.99649 9.57181 2.3414 8.25474 3.00589C5.03915 4.61299 3.00297 7.90335 3.00083 11.4981C2.99739 12.8161 3.31239 14.1028 3.84458 15.3047L2.05162 20.6836C1.99267 20.8599 1.98402 21.0492 2.02665 21.2301C2.06927 21.411 2.16148 21.5765 2.29292 21.7079C2.42437 21.8394 2.58984 21.9316 2.77078 21.9742C2.95171 22.0168 3.14095 22.0082 3.31724 21.9492L8.69615 20.1563C9.89808 20.6885 11.1848 21.0035 12.5028 21C16.096 20.9979 19.3852 18.9633 20.993 15.75V15.748C21.6585 14.4298 22.0047 12.9748 22.0008 11.4981V11C22.0007 10.9818 22 10.9635 21.9988 10.9453C21.7332 6.12887 17.872 2.2677 13.0555 2.00198C13.0373 2.00083 13.0191 2.00018 13.0008 2.00003H12.5028H12.5008ZM12.4988 4.00003C12.4995 4.00003 12.5002 4.00003 12.5008 4.00003H12.954C16.7624 4.2143 19.7866 7.23847 20.0008 11.0469V11.5C20.0008 11.5007 20.0008 11.5014 20.0008 11.502C20.0038 12.6644 19.7319 13.8121 19.2079 14.8497C19.2072 14.851 19.2065 14.8523 19.2059 14.8536C17.9352 17.396 15.3432 18.9989 12.5008 19C12.5002 19 12.4995 19 12.4988 19C11.3364 19.003 10.1887 18.7311 9.15118 18.2071C9.03332 18.1474 8.90482 18.1117 8.77308 18.102C8.64134 18.0922 8.50898 18.1087 8.38365 18.1504L4.58287 19.418L5.85044 15.6172C5.89217 15.4919 5.90864 15.3595 5.89892 15.2278C5.8892 15.096 5.85347 14.9675 5.7938 14.8496C5.26973 13.8121 4.9978 12.6644 5.00083 11.502C5.00084 11.5013 5.00084 11.5007 5.00083 11.5C5.00194 8.65771 6.60485 6.06563 9.14732 4.79495C9.14862 4.7943 9.14993 4.79365 9.15123 4.793C10.1888 4.26892 11.3364 3.997 12.4988 4.00003Z" fill="white"/>
</svg>
